<svg id="visual" viewBox="0 0 960 100" width="960" height="100" xmlns="http://www.w3.org/2000/svg" xmlns:xlink="http://www.w3.org/1999/xlink" version="1.1"><rect x="0" y="0" width="960" height="100" fill="#b3ffe7"></rect><path d="M0 59L22.8 60C45.7 61 91.3 63 137 64.2C182.7 65.3 228.3 65.7 274 63.5C319.7 61.3 365.3 56.7 411.2 56.2C457 55.7 503 59.3 548.8 58C594.7 56.7 640.3 50.3 686 48.8C731.7 47.3 777.3 50.7 823 52.3C868.7 54 914.3 54 937.2 54L960 54L960 0L937.2 0C914.3 0 868.7 0 823 0C777.3 0 731.7 0 686 0C640.3 0 594.7 0 548.8 0C503 0 457 0 411.2 0C365.3 0 319.7 0 274 0C228.3 0 182.7 0 137 0C91.3 0 45.7 0 22.8 0L0 0Z" fill="#b3daff"></path><path d="M0 47L22.8 46.3C45.7 45.7 91.3 44.3 137 44C182.7 43.7 228.3 44.3 274 44.8C319.7 45.3 365.3 45.7 411.2 44.5C457 43.3 503 40.7 548.8 41.7C594.7 42.7 640.3 47.3 686 48.5C731.7 49.7 777.3 47.3 823 45.5C868.7 43.7 914.3 42.3 937.2 41.7L960 41L960 0L937.2 0C914.3 0 868.7 0 823 0C777.3 0 731.7 0 686 0C640.3 0 594.7 0 548.8 0C503 0 457 0 411.2 0C365.3 0 319.7 0 274 0C228.3 0 182.7 0 137 0C91.3 0 45.7 0 22.8 0L0 0Z" fill="#c2e2ff"></path><path d="M0 34L22.8 36.2C45.7 38.3 91.3 42.7 137 43.7C182.7 44.7 228.3 42.3 274 38.7C319.7 35 365.3 30 411.2 28.2C457 26.3 503 27.7 548.8 28.3C594.7 29 640.3 29 686 29C731.7 29 777.3 29 823 28.7C868.7 28.3 914.3 27.7 937.2 27.3L960 27L960 0L937.2 0C914.3 0 868.7 0 823 0C777.3 0 731.7 0 686 0C640.3 0 594.7 0 548.8 0C503 0 457 0 411.2 0C365.3 0 319.7 0 274 0C228.3 0 182.7 0 137 0C91.3 0 45.7 0 22.8 0L0 0Z" fill="#d1e9ff"></path><path d="M0 22L22.8 21.8C45.7 21.7 91.3 21.3 137 23.2C182.7 25 228.3 29 274 29.8C319.7 30.7 365.3 28.3 411.2 27.2C457 26 503 26 548.8 25.3C594.7 24.7 640.3 23.3 686 22.5C731.7 21.7 777.3 21.3 823 20.5C868.7 19.7 914.3 18.3 937.2 17.7L960 17L960 0L937.2 0C914.3 0 868.7 0 823 0C777.3 0 731.7 0 686 0C640.3 0 594.7 0 548.8 0C503 0 457 0 411.2 0C365.3 0 319.7 0 274 0C228.3 0 182.7 0 137 0C91.3 0 45.7 0 22.8 0L0 0Z" fill="#e0f1ff"></path><path d="M0 12L22.8 12.5C45.7 13 91.3 14 137 14.5C182.7 15 228.3 15 274 14C319.7 13 365.3 11 411.2 11C457 11 503 13 548.8 12.8C594.7 12.7 640.3 10.3 686 10.5C731.7 10.7 777.3 13.3 823 15C868.7 16.7 914.3 17.3 937.2 17.7L960 18L960 0L937.2 0C914.3 0 868.7 0 823 0C777.3 0 731.7 0 686 0C640.3 0 594.7 0 548.8 0C503 0 457 0 411.2 0C365.3 0 319.7 0 274 0C228.3 0 182.7 0 137 0C91.3 0 45.7 0 22.8 0L0 0Z" fill="#f0f8ff"></path></svg>